HIERARCHY
ROOT Hips
{
	OFFSET 0.000000 0.000000 0.000000
	CHANNELS 6 Xposition Yposition Zposition Xrotation Yrotation Zrotation
	JOINT LeftUpLeg_virtual
	{
		OFFSET 0.000000 0.000000 0.000000
		CHANNELS 3 Xrotation Yrotation Zrotation
		JOINT LeftUpLeg
		{
			OFFSET 15.427100 -6.655098 0.678600
			CHANNELS 3 Xrotation Yrotation Zrotation
			JOINT LeftLeg
			{
				OFFSET 4.081073 -39.591068 13.024000
				CHANNELS 3 Xrotation Yrotation Zrotation
				JOINT LeftFoot
				{
					OFFSET -4.081074 -37.707932 -15.979700
					CHANNELS 3 Xrotation Yrotation Zrotation
					JOINT LeftToeBase
					{
						OFFSET 5.346399 -15.068900 20.645000
						CHANNELS 3 Xrotation Yrotation Zrotation
						JOINT LeftToe_End
						{
							OFFSET 2.754700 0.931300 11.300900
							CHANNELS 3 Xrotation Yrotation Zrotation
							End Site
							{
								OFFSET 0 0 0
							}
						}
					}
				}
			}
		}
	}
	JOINT RightUpLeg_virtual
	{
		OFFSET 0.000000 0.000000 0.000000
		CHANNELS 3 Xrotation Yrotation Zrotation
		JOINT RightUpLeg
		{
			OFFSET -15.569500 -6.655098 0.678600
			CHANNELS 3 Xrotation Yrotation Zrotation
			JOINT RightLeg
			{
				OFFSET -4.081825 -39.591045 13.023800
				CHANNELS 3 Xrotation Yrotation Zrotation
				JOINT RightFoot
				{
					OFFSET 4.081824 -37.707954 -15.979600
					CHANNELS 3 Xrotation Yrotation Zrotation
					JOINT RightToeBase
					{
						OFFSET -5.346400 -15.068900 20.645000
						CHANNELS 3 Xrotation Yrotation Zrotation
						JOINT RightToe_End
						{
							OFFSET -2.754700 0.931300 11.300900
							CHANNELS 3 Xrotation Yrotation Zrotation
							End Site
							{
								OFFSET 0 0 0
							}
						}
					}
				}
			}
		}
	}
	JOINT Spine_virtual
	{
		OFFSET 0.000000 0.000000 0.000000
		CHANNELS 3 Xrotation Yrotation Zrotation
		JOINT Spine
		{
			OFFSET -0.279200 12.230698 -2.892100
			CHANNELS 3 Xrotation Yrotation Zrotation
			JOINT Spine1
			{
				OFFSET -0.232667 10.192268 -1.242267
				CHANNELS 3 Xrotation Yrotation Zrotation
				JOINT Spine1_split
				{
					OFFSET -0.232667 10.192268 -1.242267
					CHANNELS 3 Xrotation Yrotation Zrotation
					JOINT Spine2
					{
						OFFSET -0.232667 10.192268 -1.242267
						CHANNELS 3 Xrotation Yrotation Zrotation
						JOINT Neck_virtual
						{
							OFFSET 0.000000 0.000000 0.000000
							CHANNELS 3 Xrotation Yrotation Zrotation
							JOINT Neck
							{
								OFFSET -0.418800 17.814194 8.416900
								CHANNELS 3 Xrotation Yrotation Zrotation
								JOINT Head
								{
									OFFSET 0.000000 7.031097 3.806800
									CHANNELS 3 Xrotation Yrotation Zrotation
									JOINT HeadTop_End
									{
										OFFSET 0.000000 24.646606 12.978600
										CHANNELS 3 Xrotation Yrotation Zrotation
										End Site
										{
											OFFSET 0 0 0
										}
									}
								}
							}
						}
						JOINT LeftShoulder_virtual
						{
							OFFSET 0.000000 0.000000 0.000000
							CHANNELS 3 Xrotation Yrotation Zrotation
							JOINT LeftShoulder
							{
								OFFSET 8.476499 7.247704 -3.868750
								CHANNELS 3 Xrotation Yrotation Zrotation
								JOINT LeftShoulder_split
								{
									OFFSET 8.476499 7.247704 -3.868750
									CHANNELS 3 Xrotation Yrotation Zrotation
									JOINT LeftArm
									{
										OFFSET 9.308998 -2.777710 0.208600
										CHANNELS 3 Xrotation Yrotation Zrotation
										JOINT LeftForeArm
										{
											OFFSET 29.972298 0.000000 0.000000
											CHANNELS 3 Xrotation Yrotation Zrotation
											JOINT LeftHand
											{
												OFFSET 26.026505 0.000000 0.000000
												CHANNELS 3 Xrotation Yrotation Zrotation
												End Site
												{
													OFFSET 0 0 0
												}
											}
										}
									}
								}
							}
						}
						JOINT RightShoulder_virtual
						{
							OFFSET 0.000000 0.000000 0.000000
							CHANNELS 3 Xrotation Yrotation Zrotation
							JOINT RightShoulder
							{
								OFFSET -7.570500 7.247704 -3.868750
								CHANNELS 3 Xrotation Yrotation Zrotation
								JOINT RightShoulder_split
								{
									OFFSET -7.570500 7.247704 -3.868750
									CHANNELS 3 Xrotation Yrotation Zrotation
									JOINT RightArm
									{
										OFFSET -9.308998 -2.777710 0.208500
										CHANNELS 3 Xrotation Yrotation Zrotation
										JOINT RightForeArm
										{
											OFFSET -29.972300 0.000000 0.000000
											CHANNELS 3 Xrotation Yrotation Zrotation
											JOINT RightHand
											{
												OFFSET -26.026505 0.000000 0.000000
												CHANNELS 3 Xrotation Yrotation Zrotation
												End Site
												{
													OFFSET 0 0 0
												}
											}
										}
									}
								}
							}
						}
					}
				}
			}
		}
	}
}
MOTION
Frames: 8
Frame Time: 0.03333333
-2.394754 92.986633 -5.926439 0.000000 0.000000 0.000000 -5.450687 -11.479331 -8.872323 -20.280039 27.885543 25.581610 19.915633 -0.502460 -3.285115 -10.322839 1.539675 -10.379686 1.553359 -2.606073 0.981955 0.000000 0.000000 0.000000 -5.485943 -8.386357 -8.506127 -9.184865 -3.403015 -12.217634 14.544681 -12.128643 3.060321 0.203952 2.725834 13.705727 -11.963574 4.464192 -7.617263 0.000000 0.000000 0.000000 -9.316378 -7.264445 -9.257596 15.603977 14.605852 -4.799634 -7.465340 -1.005518 -4.528377 0.132281 -0.594730 0.232325 0.000000 0.000000 0.000000 -16.272405 4.669076 -3.568407 7.917572 45.496372 -20.713203 -70.332466 3.000473 -118.519109 0.000000 0.000000 0.000000 -22.667678 1.210207 -4.119599 3.197463 -9.323617 -13.831659 10.175597 -4.412237 -6.075572 -19.424143 -8.961806 -60.172758 4.455191 16.360931 5.889455 0.000000 0.000000 0.000000 -30.406035 0.214112 -0.407253 14.141242 -10.664526 39.887127 -4.920423 -13.870125 -12.133220 -10.800605 65.932444 93.228066 -84.465022 -50.241874 -55.824874 0.000000 0.000000 0.000000 
-2.275225 92.820633 -6.043367 0.000000 0.000000 0.000000 -5.504855 -11.425489 -8.786426 -20.564641 27.502826 25.673018 20.160355 -0.553033 -3.363713 -9.892765 1.439486 -10.619959 1.570411 -2.571041 1.024572 0.000000 0.000000 0.000000 -5.464264 -8.135990 -8.472357 -9.282161 -3.432194 -12.051018 14.690378 -12.199447 3.075708 0.650379 2.454816 13.738639 -11.936620 4.529699 -7.561494 0.000000 0.000000 0.000000 -9.347856 -7.320171 -9.190996 15.702777 14.573740 -4.963840 -7.479154 -1.011579 -4.611541 0.166677 -0.558688 0.213870 0.000000 0.000000 0.000000 -16.397602 4.637951 -3.536228 7.517368 45.472036 -20.412370 -70.293807 2.761235 -118.592165 0.000000 0.000000 0.000000 -22.835049 1.242766 -4.129062 3.119038 -8.831603 -14.071656 10.116720 -4.836119 -5.932147 -19.423193 -9.152489 -59.906442 4.409303 16.410566 5.772379 0.000000 0.000000 0.000000 -30.490815 0.228753 -0.421658 14.021657 -10.840019 39.791545 -4.095583 -12.401984 -11.774565 -11.123617 65.786224 93.981067 -84.087613 -50.038953 -55.311859 0.000000 0.000000 0.000000 
-2.118857 92.634590 -6.164949 0.000000 0.000000 0.000000 -5.493021 -11.574678 -8.829205 -21.216080 27.186617 25.943439 20.762718 -0.443341 -3.369918 -9.629257 1.387578 -10.335198 1.429891 -2.476921 0.865877 0.000000 0.000000 0.000000 -5.443880 -7.947738 -8.507219 -9.406480 -3.599007 -11.621195 14.815802 -12.269170 3.023828 1.219224 1.831064 13.655617 -12.182420 4.591309 -7.325746 0.000000 0.000000 0.000000 -9.456864 -7.304314 -9.209381 15.720522 14.493436 -5.218650 -7.452013 -0.985500 -4.662967 0.146351 -0.540508 0.195226 0.000000 0.000000 0.000000 -16.495928 4.622429 -3.476672 7.138649 45.367459 -20.029279 -70.368092 2.444805 -118.194894 0.000000 0.000000 0.000000 -22.924726 1.296099 -4.091166 3.094237 -8.496029 -14.153017 10.189443 -5.393562 -5.975498 -19.361445 -9.308440 -59.262915 4.486762 16.236905 5.539339 0.000000 0.000000 0.000000 -30.497840 0.270025 -0.419189 13.738353 -11.282909 39.697152 -3.143723 -11.055754 -11.373716 -11.477809 65.793785 94.700190 -83.654463 -49.875342 -54.741688 0.000000 0.000000 0.000000 
-1.954443 92.543480 -6.389296 0.000000 0.000000 0.000000 -5.357258 -11.953995 -8.997901 -22.145541 26.987712 26.252478 21.639801 -0.248386 -3.303135 -9.503039 1.345206 -9.742438 1.288373 -2.324421 0.504162 0.000000 0.000000 0.000000 -5.349239 -7.795526 -8.590199 -9.436668 -3.811728 -10.924544 14.548954 -12.332873 2.702381 1.473906 0.856739 13.200086 -12.186659 4.634541 -6.985211 0.000000 0.000000 0.000000 -9.457253 -7.318334 -9.282439 15.574121 14.412816 -5.537273 -7.386584 -0.916086 -4.660627 0.073646 -0.502407 0.190146 0.000000 0.000000 0.000000 -16.529379 4.638208 -3.393865 6.761720 45.168478 -19.571299 -70.558982 2.070011 -117.335519 0.000000 0.000000 0.000000 -22.914156 1.383473 -4.004411 3.115158 -8.377482 -14.165497 10.364325 -6.071224 -6.064299 -19.306605 -9.535601 -58.370694 4.684140 15.866772 5.174164 0.000000 0.000000 0.000000 -30.406124 0.350812 -0.393087 13.321330 -11.940567 39.596434 -2.264681 -10.274969 -10.852952 -11.697438 65.875173 95.130164 -83.186745 -49.824779 -54.157950 0.000000 0.000000 0.000000 
-1.721549 92.605690 -6.747881 0.000000 0.000000 0.000000 -5.027032 -12.426937 -9.232038 -23.179017 26.913075 26.447819 22.597566 -0.085361 -3.144294 -9.348774 1.230326 -9.161133 1.186281 -2.132398 0.020100 0.000000 0.000000 0.000000 -5.131886 -7.678791 -8.700090 -9.494016 -3.956855 -10.109710 13.895945 -12.309789 2.092674 1.500552 -0.233443 12.341572 -11.633226 4.686693 -6.669680 0.000000 0.000000 0.000000 -9.231813 -7.410875 -9.343530 15.252019 14.374750 -5.904566 -7.293813 -0.801485 -4.606482 0.032307 -0.438570 0.188475 0.000000 0.000000 0.000000 -16.469925 4.689423 -3.289950 6.336620 44.873827 -19.031398 -70.843712 1.690702 -116.045351 0.000000 0.000000 0.000000 -22.812787 1.510342 -3.884527 3.161778 -8.457401 -14.200388 10.549073 -6.663148 -6.011213 -19.277724 -9.973140 -57.345455 4.999774 15.308030 4.668839 0.000000 0.000000 0.000000 -30.198531 0.477934 -0.343202 12.803689 -12.724526 39.471270 -1.491751 -10.121331 -10.101253 -11.497980 65.935989 94.962825 -82.680895 -49.964644 -53.588688 0.000000 0.000000 0.000000 
-1.356645 92.814903 -7.247747 0.000000 0.000000 0.000000 -4.497187 -12.802856 -9.449729 -24.161454 27.030265 26.388175 23.452194 -0.011800 -2.918269 -9.097253 1.023552 -8.799079 1.051709 -1.935489 -0.448711 0.000000 0.000000 0.000000 -4.838696 -7.758134 -8.849796 -9.794606 -4.013100 -9.441942 13.159430 -12.100359 1.426299 1.990680 -1.138999 11.495195 -10.946304 4.801060 -6.544828 0.000000 0.000000 0.000000 -8.788948 -7.591480 -9.387459 14.843743 14.402221 -6.309108 -7.185041 -0.648757 -4.519861 0.039457 -0.345070 0.187206 0.000000 0.000000 0.000000 -16.307459 4.768834 -3.160349 5.848508 44.507217 -18.406217 -71.203909 1.341059 -114.392787 0.000000 0.000000 0.000000 -22.646638 1.663992 -3.754179 3.216831 -8.623437 -14.326233 10.605052 -6.934862 -5.872328 -19.252913 -10.728130 -56.283313 5.393347 14.561647 4.021200 0.000000 0.000000 0.000000 -29.863185 0.651199 -0.283698 12.200705 -13.502216 39.296763 -0.885090 -10.166203 -9.218022 -10.723496 65.894243 94.036194 -82.114460 -50.368079 -53.033031 0.000000 0.000000 0.000000 
-0.844925 93.128693 -7.754309 0.000000 0.000000 0.000000 -3.833607 -12.985856 -9.570393 -24.916764 27.436023 26.032043 24.007681 0.030437 -2.634877 -8.819246 0.808301 -8.674068 0.784947 -1.765792 -0.775261 0.000000 0.000000 0.000000 -4.536442 -8.129713 -9.016924 -10.580623 -3.957826 -9.035109 12.527245 -11.523966 0.868189 3.265469 -1.607574 11.262660 -10.846265 5.002538 -6.764344 0.000000 0.000000 0.000000 -8.274304 -7.960897 -9.396595 14.544961 14.457338 -6.786991 -7.083722 -0.473097 -4.398562 0.059698 -0.264278 0.172997 0.000000 0.000000 0.000000 -16.047895 4.851496 -3.012285 5.247176 44.101193 -17.684466 -71.612013 1.037258 -112.477212 0.000000 0.000000 0.000000 -22.440049 1.826274 -3.627977 3.272794 -8.717830 -14.513332 10.454631 -6.940490 -5.790184 -19.171602 -11.826026 -55.271107 5.799157 13.659202 3.236937 0.000000 0.000000 0.000000 -29.421883 0.847673 -0.213478 11.535306 -14.155348 39.070861 -0.551975 -10.198762 -8.184046 -9.465915 65.701441 92.465933 -81.449446 -51.044353 -52.434232 0.000000 0.000000 0.000000 
-0.155282 93.395981 -8.345686 0.000000 0.000000 0.000000 -3.201416 -13.098321 -9.559452 -25.405327 28.151113 25.484168 24.227308 0.115756 -2.328472 -8.515245 0.697101 -8.759383 0.535675 -1.633437 -0.943526 0.000000 0.000000 0.000000 -4.201827 -8.919137 -9.162892 -11.918491 -3.750771 -8.961026 12.150135 -10.537205 0.439667 5.000414 -1.521749 11.596317 -11.282238 5.272962 -7.383259 0.000000 0.000000 0.000000 -7.798377 -8.635522 -9.334277 14.540672 14.494066 -7.430334 -7.027680 -0.300763 -4.254364 0.071947 -0.200406 0.155045 0.000000 0.000000 0.000000 -15.734198 4.916811 -2.859290 4.492168 43.710315 -16.867261 -72.005575 0.811057 -110.397365 0.000000 0.000000 0.000000 -22.223597 1.981262 -3.508768 3.335726 -8.607442 -14.666385 10.319186 -6.769564 -5.745004 -18.936573 -13.182330 -54.313227 6.124453 12.581484 2.347568 0.000000 0.000000 0.000000 -28.927408 1.034795 -0.137813 10.836718 -14.626835 38.814285 -0.507116 -10.179246 -7.164060 -7.831395 65.394874 90.435693 -80.637678 -51.950047 -51.701967 0.000000 0.000000 0.000000 
